<svg width="40" height="40" viewBox="0 0 40 40" fill="none" xmlns="http://www.w3.org/2000/svg">
<path d="M0 19H8.77393C10.7759 19 12.8501 18.8779 14.5542 17.8279C15.8862 17.0073 17.0073 15.886 17.8281 14.554C18.8779 12.8501 19 10.7759 19 8.77393V0H6C4.40869 0 2.88281 0.63208 1.75732 1.75732C0.632324 2.88257 0 4.40869 0 6V19Z" fill="#6D1600"/>
<path d="M40 20C40 31.0459 31.0459 40 20 40C9.29004 40 0.546875 31.5811 0.0239258 21H8.77393C10.7759 21 12.8501 21.1221 14.5537 22.1721C15.7749 22.9238 16.8203 23.9294 17.6187 25.1206C18.417 26.3118 18.9497 27.6606 19.1812 29.0759L19.2432 29.459C19.2969 29.6169 19.3989 29.7539 19.5347 29.8511C19.6172 29.9099 19.7095 29.9521 19.8062 29.9763C19.8691 29.9922 19.9341 30.0002 20 30.0002C20.167 30.0002 20.3296 29.948 20.4653 29.8511C20.6011 29.7539 20.7031 29.6169 20.7568 29.459L20.8188 29.0759C21.1567 27.0081 22.1353 25.0986 23.6172 23.6172C25.0986 22.1355 27.0083 21.1567 29.0757 20.8191L29.459 20.7571C29.6167 20.7031 29.7539 20.6011 29.8511 20.4653C29.9482 20.3296 30 20.1667 30 20C30 19.8333 29.9482 19.6704 29.8511 19.5347C29.7944 19.4553 29.7241 19.3875 29.6436 19.334C29.5864 19.2961 29.5244 19.2654 29.459 19.2429L29.0757 19.1809C27.6606 18.95 26.3115 18.4172 25.1206 17.6189C23.9292 16.8206 22.9238 15.7751 22.1719 14.554C21.1221 12.8501 21 10.7759 21 8.77393V0H34C35.5913 0 37.1172 0.63208 38.2427 1.75732C39.3677 2.88257 40 4.40869 40 6V20Z" fill="#6D1600"/>
</svg>
